<svg viewBox="0 0 273.7 568" xmlns="http://www.w3.org/2000/svg" xmlns:xlink="http://www.w3.org/1999/xlink" id="Layer_1" overflow="hidden"><path d="M83 368C81.4 367.6 67.9 430.8 69.7 455.4 71.5 480 83 565.4 83 565.4L221.2 565.4C221.2 565.4 238.5 482.3 235.4 457.2 232.3 432.1 215.9 365.9 215.9 365.9L83 368Z" fill="#1A2E35"/><g><g><g><path d="M65.3 248.5 45.6 159.6 44.5 144.9C44.5 144.9 40 111.9 39.9 108.7 39.9 105 38.1 104.1 36.7 104.2 34.6 104.4 33.1 107 33 110.2 33 111.3 33.3 128.8 33.3 128.8 33.3 128.8 32.5 127.4 29.9 124.1 27.3 120.9 21.2 119.1 15 119.3 8.8 119.6 7.1 120.2 7.1 122.6 7.1 123.6 7.7 124.3 8.3 124.9 9.4 125.9 10.9 126.3 12.4 126.3 22.4 126 25.1 131.3 25.1 131.3L25.2 133.2C25.2 133.2 19.1 128.9 14.3 130.8 13.5 131.1 12.9 131.5 12.4 132 9.8 132.1 7.2 133.5 5.8 135.8 4.4 138.2 4.4 141.3 5.8 143.7 6.5 144.8 7.7 145.9 9 145.6 9.7 145.5 10.2 145 10.8 144.5 11.1 144.3 11.4 144 11.7 143.8L12.9 149.1C12.9 149.1 16.2 160.9 17 166.3L22.3 254.4C23 266.6 33.6 275.9 45.8 274.9L45.8 274.9C58.9 274 68.2 261.5 65.3 248.5Z" fill="#DF63B9"/></g></g></g><path d="M223.7 173C230.9 173 248.3 193.5 251.3 224.8 252.7 239.1 259.8 297.6 263.3 325.8 264.6 336 260.1 345.9 251.9 352 233.2 365.6 195.7 387 145.9 386.4L115.7 361.1 213.7 319.8 213.8 317.6 218.1 312.9 205.9 237.9C205.8 237.8 194.4 173 223.7 173Z" fill="#61ABEE"/><g><path d="M198.2 41.1C198.6 51.2 212.1 57.4 211.9 67.5 211.8 71.9 209.1 75.8 208.6 80.1 207.9 85.9 211.1 91.4 212.3 97.1 214.8 108.9 207.9 121.4 197.7 127.8 187.5 134.3 174.7 135.5 162.8 133.9" fill="#1A2E35"/></g><path d="M116.6 38.6C117 44 113.4 48.9 109.8 53 106.2 57.1 102.1 61.3 101.4 66.7 100 76.3 109.4 85.2 107.5 94.6 106.5 99.7 102.3 103.8 101.6 108.9 100.9 113.9 103.5 118.7 106.8 122.5 110.1 126.3 113.9 125.7 116.8 129.8 119.9 134.1 124.8 138.5 129.5 141 140 146.8 152.6 138.4 157.7 136.9" fill="#1A2E35"/><path d="M200.2 46.9C200.3 42 195.8 38.1 191.2 36.3 186.6 34.5 181.5 33.8 177.4 31.1 173.8 28.7 171.3 24.8 168.3 21.7 160.8 14.1 149 10.9 138.7 13.7 128.4 16.5 119.8 25.2 117.2 35.6 115.4 42.6 116.6 50.9 122.2 55.6 128.6 61 138.2 59.8 146.4 58.1 154.6 56.4 164 54.7 170.9 59.6 175.1 62.5 177.4 67.3 180 71.7 182.5 76.1 185.7 80.6 190.5 82.2 195.3 83.9 201.8 81 202 75.9" fill="#1A2E35"/><g><g><g><g><g><g><path d="M134.6 161.9C134.5 150.6 134.5 139.5 134.5 139.6 134.5 139.6 116.5 136.6 112.8 113.1 111 101.4 111.6 82.3 112.6 66.6 113.5 52.5 122.9 35.2 136.9 36.8L180.7 48C185 48.5 188.2 52.1 188.1 56.4L188.1 56.4 184.1 162.8C183.6 176.3 172.4 186.9 158.9 186.6L158.9 186.6C145.5 186.3 134.7 175.4 134.6 161.9Z" fill="#DF63B9"/></g></g></g></g></g></g><g><g><g><g><g><g><g><path d="M146.3 103.5C145.8 103.5 145.8 107 142.7 109.5 139.7 112 135.9 111.6 135.9 112.1 135.9 112.3 136.7 112.8 138.3 112.8 139.9 112.9 142.1 112.4 144 110.8 145.8 109.3 146.6 107.2 146.8 105.8 147 104.4 146.6 103.5 146.3 103.5Z" fill="#1A2E35"/></g></g></g></g></g></g></g><path d="M190.7 126.5C184.2 127.8 183.7 124.5 178.8 120 174 115.5 171.5 108.6 172.3 102.1 173 96.3 176.1 90.5 174.1 85 171.5 77.8 161.3 75.6 158.7 68.4 157.1 64.2 158.5 59.3 156.8 55.2 155.1 51.3 151.1 49.1 147.1 47.7 143.1 46.3 138.9 45.3 135.6 42.7 132.3 40.1 130.2 35.3 132.4 31.6 149.9 33.7 167.2 37.9 183.7 44.1 187.5 45.5 191.6 47.3 193.8 50.7 196.2 54.3 196.1 59 195.9 63.3 194.9 84.4 193.9 105.5 192.9 126.6" fill="#1A2E35"/><g><path d="M205.5 78.6C206.2 70.9 212.5 64 220.2 62.6 227.9 61.2 236.2 65.4 239.6 72.4 242.9 79 241.7 87.1 238.7 93.8 235.1 101.8 227.7 109.1 218.9 108.7 210.6 108.3 204 101.1 201.6 93.2 199.2 85.3 200.2 76.8 201.2 68.6" fill="#1A2E35"/></g><g><g><path d="M210.1 110.8C210.1 110.8 210.7 110.4 211.3 109.4 212 108.4 212.7 106.8 213.1 104.7 213.4 102.6 213.4 100 212.9 97.3 212.4 94.5 211.5 91.6 210.8 88.6 210.1 85.5 209.8 82.5 210.3 79.9 210.8 77.3 212 75.1 212.6 73 213.2 70.9 213.1 69.1 212.7 68 212.3 66.8 211.8 66.4 211.8 66.4 211.7 66.4 212.1 67 212.3 68.1 212.5 69.2 212.5 70.9 211.9 72.8 211.3 74.7 210 76.9 209.4 79.7 208.8 82.5 209.1 85.7 209.8 88.8 210.5 91.9 211.5 94.8 212 97.5 212.5 100.2 212.7 102.6 212.4 104.6 211.9 108.7 209.9 110.7 210.1 110.8Z" fill="#375A64"/></g></g><g><g><path d="M210.4 82.6C210.3 82.7 211.4 84.3 214 86.1 216.5 87.9 220.7 89.8 225.5 89.9 230.4 90 234.6 88.3 237.2 86.5 239.8 84.8 241 83.2 240.9 83.1 240.8 83 239.4 84.4 236.8 85.9 234.2 87.4 230.1 88.9 225.5 88.9 220.9 88.8 216.9 87.2 214.3 85.5 211.9 83.9 210.6 82.4 210.4 82.6Z" fill="#375A64"/></g></g><g><g><path d="M211.6 86.2C211.5 86.2 212.1 87.8 213.6 89.9 215.1 92 217.7 94.7 221.1 96.7 224.5 98.8 228.1 99.8 230.6 100.1 233.2 100.4 234.8 100.2 234.8 100.1 234.8 99.9 233.2 99.9 230.7 99.4 228.2 98.9 224.9 97.8 221.6 95.8 218.3 93.8 215.8 91.4 214.2 89.4 212.5 87.5 211.7 86.2 211.6 86.2Z" fill="#375A64"/></g></g><g><g><path d="M205.7 118.6C205.7 118.6 205.8 118.5 206 118.3 206.1 118.1 206.4 117.8 206.6 117.4 207.1 116.5 207.8 115.2 208.1 113.3 208.5 111.4 208.5 109 207.7 106.4 207 103.8 205.1 101 202.2 99 199.4 97 195.8 95.7 193.5 92.5 192.3 91 191.9 89 192.2 87 192.5 85 193.4 83 194.2 80.9 196 76.7 196 71.4 193.9 66.9 192.8 64.6 191.3 62.5 189.1 61 187 59.4 184.4 58.6 181.9 58 179.4 57.4 176.8 57.1 174.5 56.4 172.2 55.7 169.9 54.6 168.3 53 166.6 51.4 165.9 49.1 165.6 46.8 165.3 44.5 165.1 42.2 164.5 40 163.4 35.6 161.1 31.7 158.2 28.9 155.2 26.1 151.6 24.5 148.2 23.9 144.8 23.4 141.5 24 139.1 25.3 136.6 26.5 134.9 28.3 133.8 29.8 132.7 31.4 132.2 32.8 132 33.8 131.8 34.8 131.8 35.3 131.8 35.3 132 35.4 132 33.1 134.2 30 135.3 28.5 137 26.9 139.4 25.7 141.8 24.5 144.8 24 148.1 24.5 151.4 25 154.8 26.6 157.6 29.3 160.4 32 162.5 35.8 163.6 40 164.2 42.1 164.3 44.4 164.7 46.7 165 49 165.8 51.6 167.7 53.4 169.5 55.2 171.9 56.3 174.4 57.1 176.9 57.8 179.4 58.2 181.9 58.8 184.4 59.4 186.8 60.1 188.7 61.6 190.7 63 192.1 65 193.2 67.1 195.2 71.4 195.2 76.3 193.5 80.4 192.7 82.5 191.8 84.5 191.4 86.7 191 88.9 191.6 91.2 192.9 92.9 195.5 96.3 199.2 97.6 201.9 99.5 204.7 101.3 206.5 103.9 207.2 106.4 208 108.9 208 111.3 207.7 113.1 207.1 116.9 205.5 118.6 205.7 118.6Z" fill="#375A64"/></g></g><g><g><path d="M204.1 53.1C204.1 53.1 204.3 52.8 204.4 52 204.5 51.3 204.4 50.1 203.6 48.9 202.9 47.7 201.6 46.4 199.7 45.7 197.8 45 195.4 45 193 45.5 190.5 46 188 46.9 185.2 47.5 182.5 48 179.2 48.1 176.7 46.2 174.2 44.3 173 41 171.7 37.7 170.4 34.4 168.7 31 166.3 28 161.5 22 155 17.9 148.5 16.5 145.2 15.8 142 15.9 139.1 16.7 136.3 17.6 133.9 19.2 132.2 21.1 130.5 23 129.7 25.3 129.6 27.3 129.4 29.3 129.8 31 130.4 32.3 130.9 33.6 131.6 34.5 132.2 35 132.7 35.5 133.1 35.7 133.1 35.7 133.2 35.6 131.8 34.7 130.8 32.2 130.3 30.9 130 29.3 130.2 27.4 130.4 25.5 131.2 23.4 132.8 21.6 134.4 19.8 136.7 18.3 139.4 17.5 142.1 16.7 145.2 16.7 148.3 17.4 154.5 18.8 160.8 22.8 165.5 28.6 167.8 31.5 169.5 34.7 170.8 38 172.1 41.2 173.4 44.7 176.2 46.8 177.6 47.9 179.2 48.4 180.8 48.5 182.4 48.7 184 48.5 185.4 48.2 188.3 47.6 190.8 46.6 193.2 46.1 195.6 45.6 197.8 45.5 199.6 46.1 201.4 46.7 202.7 47.9 203.4 49 204.2 50.1 204.3 51.2 204.3 51.9 204.2 52.7 204 53 204.1 53.1Z" fill="#375A64"/></g></g><path d="M225.8 173.3 184.2 162.7 134.5 162.7C134.5 162.7 108.8 164.2 94.4 176.8 94 177.1 89.6 181.2 86.6 189.6L64.5 240.1 53.2 176.8 13.6 182.4 20 291.4C22.3 314.6 39.4 333.6 62.2 338.4L84.7 313C87.3 333.7 89.6 351.4 89.8 351.2 90.4 350.6 213.2 343.2 213.2 343.2L200.8 301.1 225.8 173.3Z" fill="#61ABEE"/><path d="M68.3 32.3C68.5 16.6 55.9 3.7 40.2 3.6 24.5 3.4 11.6 16 11.5 31.7 11.4 43.1 17.9 52.9 27.5 57.6 27.5 61 27.4 64.8 27.4 64.8L52.3 65C52.3 65 52.5 61 52.6 57.4 61.8 52.7 68.2 43.3 68.3 32.3Z" fill="#F0CA48"/><path d="M43.3 64.8C43.3 64.8 43.3 64.7 43.3 64.4 43.3 64.2 43.4 63.8 43.4 63.4 43.5 62.5 43.7 61.2 44 59.5 44.3 57.8 44.6 55.7 45.2 53.3 45.8 50.9 46.6 48.2 47.9 45.4 48.6 44 49.3 42.6 50.3 41.2 50.8 40.5 51.4 39.9 52.3 39.5 53.1 39.1 54.2 39.1 55 39.6 55.4 39.8 55.8 40.3 55.9 40.7 56 41.2 56 41.7 55.8 42.2 55.4 43.1 54.5 43.7 53.6 44.1 51.7 44.7 49.6 44.5 47.7 43.6 45.8 42.7 44.4 40.9 43.7 38.8 43.4 37.8 43.2 36.6 43.6 35.5 43.9 34.4 45 33.4 46.2 33.6 46.8 33.7 47.4 34.1 47.6 34.6 47.9 35.1 47.9 35.8 47.8 36.4 47.5 37.6 46.6 38.5 45.8 39.2 44 40.7 41.5 41.5 39.2 41.1 36.8 40.7 34.7 39.1 33.7 36.9 33.2 35.8 33.1 34.6 33.5 33.5 33.7 33 34.2 32.5 34.8 32.3 35.4 32.1 36 32.2 36.5 32.5 37 32.8 37.4 33.2 37.7 33.8 38 34.3 38.1 34.9 38.1 35.4 38.2 36.5 38 37.6 37.6 38.6 36.9 40.7 35.4 42.4 33.5 43.3 31.7 44.3 29.5 44.5 27.6 44 26.7 43.8 25.7 43.4 25.1 42.6 24.5 41.8 24.3 40.7 25 39.9 25.3 39.5 25.8 39.3 26.3 39.3 26.8 39.3 27.2 39.4 27.7 39.6 28.5 40 29 40.8 29.4 41.6 30.1 43.1 30.7 44.7 31.2 46.1 33.4 51.8 35 56.6 36 59.9 36.5 61.5 36.9 62.8 37.2 63.7 37.3 64.1 37.4 64.5 37.5 64.7 37.6 64.9 37.6 65 37.6 65 37.6 65 37.6 64.9 37.5 64.7 37.4 64.5 37.3 64.1 37.2 63.7 36.9 62.8 36.5 61.6 36 59.9 34.9 56.6 33.3 51.9 31.1 46.2 30.5 44.8 30 43.3 29.3 41.7 28.9 41 28.4 40.2 27.7 39.9 27 39.5 26 39.5 25.4 40.2 24.9 40.8 25 41.9 25.5 42.6 26.1 43.3 27 43.7 27.9 43.9 29.7 44.3 31.8 44.1 33.6 43.2 35.4 42.3 36.8 40.6 37.5 38.7 37.8 37.7 38 36.7 37.9 35.6 37.8 34.6 37.4 33.5 36.5 33 36 32.8 35.5 32.7 35 32.8 34.5 33 34.2 33.4 33.9 33.9 33.5 34.9 33.6 36.1 34.1 37.1 35 39.1 37 40.7 39.3 41 41.6 41.4 43.9 40.6 45.7 39.2 46.5 38.5 47.4 37.6 47.6 36.6 47.7 36.1 47.7 35.5 47.4 35.1 47.2 34.6 46.7 34.3 46.2 34.3 45.7 34.2 45.2 34.4 44.8 34.7 44.4 35 44.1 35.5 44 36 43.7 37 43.8 38.1 44.1 39.1 44.7 41.1 46.1 42.8 47.9 43.7 49.7 44.6 51.8 44.8 53.5 44.2 54.4 43.9 55.2 43.3 55.6 42.5 56 41.7 55.7 40.7 55 40.3 54.3 39.9 53.3 39.8 52.6 40.2 51.8 40.5 51.2 41.2 50.7 41.8 49.7 43.2 49 44.6 48.3 46 47 48.8 46.2 51.5 45.6 53.8 45 56.2 44.6 58.2 44.4 59.9 44.1 61.6 43.9 62.9 43.8 63.8 43.7 64.2 43.7 64.6 43.6 64.8 43.4 64.6 43.3 64.8 43.3 64.8Z" fill="#1A2E35"/><path d="M50.4 69.6 29 69.3C28.1 69.3 27.4 68.6 27.4 67.7L27.4 67.7C27.4 66.8 28.1 66.1 29 66.1L50.4 66.3C51.3 66.3 52 67 52 67.9L52 67.9C52 68.9 51.3 69.6 50.4 69.6Z" fill="#1A2E35"/><path d="M50.4 71 29 70.7C28.1 70.7 27.4 71.4 27.4 72.3 27.4 73.2 28.1 73.9 29 73.9L31.3 73.9 34.4 79.9C34.7 80.6 35.4 81 36.2 81L43.8 81.1C44.6 81.1 45.3 80.7 45.6 80L48.7 74.1 50.3 74.1C51.2 74.1 51.9 73.4 51.9 72.5 52 71.7 51.2 71 50.4 71Z" fill="#1A2E35"/><g opacity="0.2"><path d="M21.8 13.7C23.7 12 25.7 10.7 27.5 10 29.3 9.2 30.8 8.9 31.9 8.8 33 8.7 33.6 8.8 33.6 9 33.7 9.5 31.6 10.3 28.6 12.2 25.7 14.1 22 17.3 19.8 22 17.6 26.7 17.3 31.6 17.7 35 18.1 38.5 18.8 40.6 18.4 40.9 18.2 41 17.7 40.6 17.1 39.7 16.5 38.8 15.8 37.4 15.3 35.5 14.8 33.6 14.4 31.3 14.6 28.7 14.7 26.1 15.4 23.3 16.7 20.5" fill="#FFFFFF"/></g><g opacity="0.2"><path d="M40.5 10.3C38.7 10.3 37.1 9.8 36.9 8.8 36.8 8.3 37.2 7.8 37.8 7.4 38.5 7 39.4 6.8 40.5 6.8 41.6 6.8 42.5 7.1 43.2 7.5 43.8 7.9 44.2 8.4 44.1 8.9" fill="#FFFFFF"/></g><g><path d="M45.2 80.5C45.2 80.6 44.6 80.3 43.7 80 42.8 79.7 41.5 79.5 40.1 79.5 38.7 79.5 37.4 79.8 36.5 80.1 35.6 80.4 35.1 80.7 35.1 80.6 35.1 80.6 35.6 80.2 36.5 79.8 37.4 79.4 38.7 79.1 40.2 79.1 41.7 79.1 43 79.4 43.9 79.7 44.8 80.2 45.3 80.5 45.2 80.5Z" fill="#375A64"/></g><g><path d="M48.8 74.2C48.8 74.3 44.9 74.3 40.2 74.3 35.4 74.3 31.6 74.1 31.6 74 31.6 73.9 35.5 73.9 40.2 73.9 44.9 74 48.8 74.1 48.8 74.2Z" fill="#375A64"/></g><g><path d="M47.4 76.8C47.4 76.8 46.6 76.9 45.3 77 44 77.1 42.2 77.1 40.2 77.1 38.2 77.1 36.4 77.1 35.1 77 33.8 76.9 33 76.9 33 76.8 33 76.8 33.8 76.7 35.1 76.7 36.5 76.7 38.3 76.7 40.2 76.7 42.1 76.7 43.9 76.7 45.3 76.7 46.6 76.7 47.4 76.7 47.4 76.8Z" fill="#375A64"/></g><path d="M89.3 269.7C89.3 269.7 88.8 269.2 88 268.2 87.3 267.1 86.4 265.5 85.8 263.3 84.5 258.9 84.6 252.3 86.9 245.6 89.1 239 92.1 233.4 93.7 229.2 94.5 227.1 95.2 225.4 95.5 224.2 95.9 223 96.1 222.3 96.2 222.3 96.3 222.3 96.2 223 95.9 224.3 95.6 225.5 95.1 227.3 94.3 229.5 92.8 233.8 90 239.4 87.8 245.9 85.6 252.4 85.4 258.8 86.5 263.1 87.5 267.4 89.5 269.6 89.3 269.7Z" fill="#1A2E35"/><path d="M204.4 226.7C204.4 226.7 204.5 227 204.6 227.6 204.7 228.3 204.9 229.1 205.1 230.1 205.5 232.4 206.1 235.5 206.8 239.3 208.2 247.1 210 257.8 212 269.7 213.9 281.6 215.6 292.3 216.7 300.2 217.2 304.1 217.6 307.3 217.9 309.5 218 310.5 218.1 311.4 218.1 312 218.1 312.6 218.1 312.9 218.1 312.9 218.1 312.9 218 312.6 217.9 312 217.8 311.3 217.7 310.5 217.5 309.5 217.1 307.2 216.7 304.1 216.1 300.3 214.8 292.4 213.1 281.7 211.2 269.9 209.3 258.1 207.6 247.4 206.3 239.5 205.7 235.7 205.2 232.6 204.9 230.3 204.8 229.3 204.6 228.5 204.6 227.8 204.4 227 204.4 226.7 204.4 226.7Z" fill="#1A2E35"/><path d="M63.4 271.3C63.3 271.3 63.4 269.5 63.7 266.7 63.9 263.8 64.2 259.9 64.3 255.5 64.4 251.1 64.3 247.2 64.2 244.3 64.1 241.4 64 239.7 64.2 239.6 64.3 239.6 64.6 241.3 64.9 244.2 65.2 247.1 65.3 251 65.2 255.4 65.1 259.8 64.7 263.8 64.3 266.6 63.9 269.6 63.5 271.4 63.4 271.3Z" fill="#1A2E35"/><path d="M232.8 323.8C232.7 323.8 232.4 322.7 231.6 321.1 230.8 319.5 229.4 317.4 227.2 315.7 225 314.1 222.6 313.3 220.8 313 219 312.7 217.9 312.8 217.9 312.7 217.9 312.6 219 312.3 220.9 312.4 222.8 312.5 225.4 313.2 227.8 315 230.2 316.7 231.6 319.1 232.3 320.8 232.8 322.6 232.9 323.8 232.8 323.8Z" fill="#1A2E35"/><path d="M223.6 328.7C223.4 328.8 222.1 325.9 219.3 323.3 216.5 320.7 213.5 319.7 213.6 319.4 213.6 319.2 217 319.9 219.9 322.6 222.9 325.4 223.8 328.7 223.6 328.7Z" fill="#1A2E35"/><path d="M192.9 328.7C192.8 328.5 197.5 326.5 203.3 324 209.1 321.5 213.7 319.3 213.8 319.5 213.9 319.7 209.5 322.3 203.7 324.8 197.9 327.4 193 329 192.9 328.7Z" fill="#1A2E35"/><path d="M30.9 258.5C30.9 258.5 54.8 372.5 54.8 371 54.8 369.6 175.6 376.2 197.2 377.1L201.7 376 235.8 344.6 196.6 341.4 182.6 261.2 30.9 258.5Z" fill="#E1E1E1"/><g><path d="M182.5 261.3C182.7 261.3 187.2 286.9 192.5 318.6 197.8 350.3 201.9 376 201.6 376 201.4 376 196.9 350.4 191.6 318.7 186.4 287 182.3 261.3 182.5 261.3Z" fill="#375A64"/></g><g><path d="M183 261.3C183 261.3 182.7 261.6 182.1 262.2 181.5 262.7 180.6 263.4 179.6 264.6 179.2 265.2 178.6 265.9 178.9 266.7 179.1 267.6 179.3 268.6 179.5 269.6 179.9 271.7 180.3 274.1 180.8 276.8 182.6 287.5 185.1 302.1 187.9 318.3 190.6 334.5 193 349.1 194.7 359.9 195.5 365.2 196.2 369.4 196.7 372.5 196.9 373.9 197.1 375.1 197.2 375.9 197.3 376.7 197.3 377.1 197.3 377.1 197.3 377.1 197.2 376.7 197 375.9 196.8 375 196.6 373.9 196.3 372.5 195.8 369.4 195 365.2 194.1 359.9 192.3 349.2 189.8 334.6 187 318.4 184.3 302.2 181.9 287.6 180.2 276.8 179.8 274.2 179.4 271.7 179.1 269.6 178.9 268.6 178.8 267.5 178.6 266.7 178.3 265.6 179 264.8 179.4 264.3 180.4 263.2 181.4 262.5 182 262 182.6 261.6 182.9 261.3 183 261.3Z" fill="#375A64"/></g><g><path d="M178.5 265.5C178.5 265.5 178 265.5 177 265.6 175.9 265.6 174.5 265.6 172.7 265.6 168.9 265.5 163.6 265.5 157 265.4 143.7 265.2 125.4 264.8 105.3 264.5 85.1 264.2 66.9 263.9 53.5 263.6 46.9 263.5 41.6 263.4 37.8 263.4 36 263.4 34.6 263.3 33.5 263.3 32.5 263.3 32 263.2 32 263.2 32 263.2 32.5 263.1 33.5 263.1 34.6 263.1 36 263.1 37.8 263 41.5 263 46.9 262.9 53.5 263 66.7 263 85.1 263.2 105.3 263.6 125.5 264 143.8 264.4 157 264.8 163.6 265 168.9 265.2 172.7 265.3 174.5 265.4 175.9 265.4 177 265.5 178 265.4 178.5 265.4 178.5 265.5Z" fill="#375A64"/></g><g><path d="M196.4 344.7C196.4 344.6 197.2 344.6 198.7 344.7 200.3 344.8 202.5 344.9 205 345 210.4 345.3 217.8 345.7 226.1 346.2L227.2 346.3 226.4 347C225.9 347.4 225.4 347.9 224.9 348.3 218.2 354 212.1 359.1 207.7 362.8 205.6 364.5 203.8 366 202.4 367.1 201.1 368.1 200.4 368.6 200.4 368.6 200.4 368.6 201 367.9 202.2 366.9 203.5 365.7 205.2 364.2 207.3 362.4 211.6 358.6 217.7 353.4 224.4 347.7 224.9 347.3 225.4 346.8 225.9 346.4L226.2 347.2C217.9 346.7 210.5 346.2 205.1 345.8 202.5 345.6 200.4 345.4 198.8 345.3 197.3 344.9 196.4 344.8 196.4 344.7Z" fill="#375A64"/></g><path d="M91.4 374.5 91.4 374.5 89.9 355.9C89.9 355.9 96.1 355 96.5 361.9L96.5 350.4C96.5 350.4 103.6 348.9 105.1 358.1 106.6 367.4 108.9 372.4 108.9 372.4L112.7 374.5 109 353C109 353 116.5 353.7 117.8 360.7 119.1 367.8 121.1 372.7 121.1 372.7L133 376C133 376 126.2 369.9 126.9 367.9 127.6 365.9 127.1 366 128.4 365.8 129.7 365.5 132.7 366.4 134.7 367.5 136.9 368.6 149.4 376 149.4 376L149.4 385.2C149.4 385.2 120.3 387.3 113.7 386.1L101 383.2C96.6 382.2 92.9 378.9 91.4 374.5Z" fill="#DF63B9"/><path d="M119.2 313.5C120 318.4 117.1 322.9 112.7 323.7 108.3 324.4 104.1 321.1 103.3 316.2 102.5 311.3 105.4 306.8 109.8 306 114.2 305.3 118.4 308.6 119.2 313.5Z" fill="#FAFAFA"/><path d="M218 312.3C222.9 310.7 228.4 310.7 233.2 312.8 237.9 314.9 241.7 319.3 242.4 324.4 242.6 325.6 242.6 326.8 242.1 327.9 241.7 329 240.8 330 239.7 330.4 237.9 331 235.9 329.7 234.8 328.1 233.7 326.5 233.4 324.5 232.6 322.7 230.2 316.7 224 312.3 217.5 312.2 217.8 312.3 218 312.3 218.3 312.4"/><path d="M130.3 169C131.3 165.9 130.4 162.5 129.8 159.3 129.2 156.1 129.2 152.4 131.4 149.9 133.6 147.5 137.2 147.2 140.5 147 153.9 146.4 167.4 145.8 180.8 145.2 183.6 145.1 186.7 145.1 188.5 147.3 189.6 148.7 190.4 150.6 189.9 152.3 187.8 160 188.5 166.5 191.5 171.9" fill="#61ABEE"/><path d="M185 165.1C185 165.1 184.4 165.7 183.2 166.6 182 167.5 180.2 168.7 177.9 170 173.3 172.5 166.3 175.3 158.1 176 154.1 176.4 150.2 176.3 146.7 175.8 143.2 175.3 140.1 174.2 137.8 172.9 135.4 171.6 133.8 170.1 132.9 168.9 132.4 168.3 132.1 167.8 131.9 167.5 131.7 167.2 131.6 167 131.6 167 131.8 166.8 133.3 170 138 172.4 140.3 173.6 143.3 174.5 146.7 175 150.1 175.5 154 175.5 157.9 175.1 165.9 174.4 172.8 171.8 177.5 169.4 182.3 167 184.9 165 185 165.1Z" fill="#1A2E35"/><path d="M157.4 176.1C157.3 176.1 156.9 174.4 156.4 171.7 155.9 168.9 155.2 165.1 154.5 160.9 154.2 158.8 153.8 156.8 153.5 154.9 153.2 153.1 153.2 151.3 153.7 149.8 154.2 148.4 155.1 147.5 155.8 147.1 156.5 146.7 157 146.7 157 146.8 157 146.9 156.6 147 156 147.4 155.4 147.8 154.7 148.7 154.3 150 153.9 151.3 154 152.9 154.3 154.7 154.6 156.6 155 158.6 155.3 160.7 156 164.9 156.6 168.8 157 171.6 157.4 174.4 157.5 176.1 157.4 176.1Z" fill="#1A2E35"/><path d="M178.4 169.7C178.3 169.7 178 168.3 177.6 166 177.2 163.7 176.8 160.6 176.4 157.1 175.9 153.6 175.7 150.4 175.4 148.2 175.2 147.1 174.6 146.4 174.1 146.1 173.6 145.8 173.2 145.7 173.2 145.7 173.2 145.7 173.6 145.6 174.2 145.9 174.8 146.2 175.6 147 175.9 148.2 176.4 150.5 176.7 153.6 177.2 157.1 177.6 160.6 178 163.8 178.2 166 178.4 168.3 178.5 169.7 178.4 169.7Z" fill="#1A2E35"/><path d="M140 147C140.1 147.1 138.6 147.5 137.3 149.3 136.7 150.2 136.1 151.4 135.8 152.8 135.5 154.2 135.5 155.8 135.7 157.5 136 160.9 136.3 164.1 136.4 166.3 136.5 168.6 136.6 170 136.5 170 136.4 170 136.1 168.6 135.8 166.4 135.5 164.1 135.1 161 134.8 157.6 134.7 155.9 134.7 154.1 135 152.6 135.3 151.1 136 149.8 136.8 148.9 138.4 147.1 140 146.9 140 147Z" fill="#1A2E35"/></svg>